{"glyphs":{"0":{"ha":1133,"x_min":0,"x_max":0,"o":"m 319 482 b 567 156 319 308 382 156 b 814 482 751 156 814 308 b 567 808 814 656 751 808 b 319 482 382 808 319 656 m 58 482 b 567 989 58 806 242 989 b 1075 482 892 989 1075 806 b 567 -25 1075 178 906 -25 b 58 482 242 -25 58 158 "},"1":{"ha":772,"x_min":0,"x_max":0,"o":"m 343 615 l 51 615 l 51 788 b 400 964 265 792 344 808 l 596 964 l 596 0 l 343 0 "},"2":{"ha":1133,"x_min":0,"x_max":0,"o":"m 1050 189 l 1050 0 l 58 0 b 778 672 83 578 778 435 b 593 808 778 753 710 808 b 361 626 485 808 376 764 l 83 626 b 583 989 96 903 319 989 b 1056 668 933 989 1056 824 b 640 333 1056 476 906 415 l 528 299 b 351 189 468 278 394 246 "},"3":{"ha":1133,"x_min":0,"x_max":0,"o":"m 425 588 l 629 588 b 753 693 717 588 753 644 b 556 817 753 778 669 817 b 357 685 458 817 376 775 l 88 685 b 585 989 115 931 354 989 b 1031 710 903 989 1031 868 b 874 524 1031 610 971 543 l 874 521 b 1069 293 993 497 1069 408 b 550 -25 1069 136 964 -25 b 58 315 258 -25 68 64 l 328 315 b 564 156 329 190 460 156 b 783 292 704 156 783 206 b 606 415 783 385 689 415 l 425 415 "},"4":{"ha":1133,"x_min":0,"x_max":0,"o":"m 665 767 l 304 358 l 665 358 m 665 186 l 56 186 l 56 368 l 594 964 l 901 964 l 901 358 l 1078 358 l 1078 186 l 901 186 l 901 0 l 665 0 "},"5":{"ha":1133,"x_min":0,"x_max":0,"o":"m 192 964 l 997 964 l 997 783 l 368 783 l 335 594 b 610 653 403 636 533 653 b 1063 328 815 653 1063 578 b 561 -25 1063 81 826 -25 b 58 288 356 -25 69 33 l 336 288 b 558 156 361 185 443 156 b 793 321 718 156 793 210 b 556 489 793 460 638 489 b 354 422 489 489 404 471 l 99 422 "},"6":{"ha":1133,"x_min":0,"x_max":0,"o":"m 786 707 b 586 808 753 796 668 808 b 335 542 403 808 338 708 b 622 638 406 608 517 638 b 1075 321 825 638 1075 579 b 597 -25 1075 93 878 -25 b 74 479 196 -25 74 194 b 608 989 74 746 189 989 b 1051 707 796 989 1029 931 m 569 465 b 358 308 432 465 358 408 b 597 156 358 233 415 156 b 806 307 717 156 806 211 b 569 465 806 378 761 464 "},"7":{"ha":1054,"x_min":0,"x_max":0,"o":"m 32 964 l 1010 964 l 1010 751 b 521 0 800 542 581 311 l 193 0 b 732 775 242 322 497 567 l 32 775 "},"8":{"ha":1133,"x_min":0,"x_max":0,"o":"m 565 435 b 336 296 429 435 336 393 b 565 156 336 197 429 156 b 797 296 704 156 797 197 b 565 435 797 393 704 435 m 567 -25 b 58 286 304 -25 58 49 b 254 521 58 406 136 490 l 254 524 b 96 725 153 560 99 622 b 567 989 99 947 371 989 b 1032 725 763 989 1035 947 b 879 524 1035 622 981 560 l 879 521 b 1075 286 997 490 1075 406 b 567 -25 1075 49 829 -25 m 565 588 b 763 701 714 588 763 639 b 565 808 763 782 660 808 b 365 701 425 808 365 768 b 565 588 365 633 424 588 "},"9":{"ha":1133,"x_min":0,"x_max":0,"o":"m 347 257 b 547 156 381 168 465 156 b 799 422 731 156 796 256 b 511 326 728 356 617 326 b 58 643 308 326 58 385 b 536 989 58 871 256 989 b 1060 485 938 989 1060 769 b 525 -25 1060 218 944 -25 b 82 257 338 -25 104 33 m 564 499 b 775 656 701 499 775 556 b 536 808 775 731 718 808 b 328 657 417 808 328 753 b 564 499 328 586 372 500 "}," ":{"ha":514,"x_min":0,"x_max":0,"o":""},"!":{"ha":514,"x_min":0,"x_max":0,"o":"m 122 992 l 392 992 l 350 321 l 164 321 m 122 236 l 392 236 l 392 0 l 122 0 "},"\"":{"ha":822,"x_min":0,"x_max":0,"o":"m 469 992 l 642 992 l 642 501 l 469 501 m 181 992 l 353 992 l 353 501 l 181 501 "},"#":{"ha":1133,"x_min":0,"x_max":0,"o":"m 303 244 l 186 244 l 186 397 l 324 397 l 349 567 l 232 567 l 232 719 l 369 719 l 404 964 l 557 964 l 522 719 l 678 719 l 713 964 l 865 964 l 831 719 l 947 719 l 947 567 l 810 567 l 785 397 l 901 397 l 901 244 l 764 244 l 729 0 l 576 0 l 611 244 l 456 244 l 421 0 l 268 0 m 657 567 l 501 567 l 476 397 l 632 397 "},"$":{"ha":1133,"x_min":0,"x_max":0,"o":"m 628 144 b 776 271 729 156 776 203 b 628 381 776 344 718 364 m 525 819 b 351 713 449 819 351 797 b 525 607 351 640 396 628 m 525 396 l 403 415 b 90 686 282 435 90 467 b 525 992 90 906 293 988 l 525 1107 l 628 1107 l 628 992 b 1029 685 817 976 1017 907 l 751 685 b 628 811 739 764 690 799 l 628 590 l 769 568 b 1063 304 951 539 1063 458 b 628 -28 1063 122 960 -18 l 628 -176 l 525 -176 l 525 -28 b 71 304 210 -14 82 85 l 357 304 b 525 144 360 197 436 157 "},"%":{"ha":1440,"x_min":0,"x_max":0,"o":"m 217 722 b 336 572 217 656 233 572 b 456 722 439 572 456 656 b 336 872 456 789 439 872 b 217 722 233 872 217 789 m 967 992 l 1103 992 l 472 -28 l 336 -28 m 985 242 b 1104 92 985 175 1001 92 b 1224 242 1207 92 1224 175 b 1104 392 1224 308 1207 392 b 985 242 1001 392 985 308 m 53 722 b 336 992 53 888 136 992 b 619 722 536 992 619 888 b 336 453 619 557 536 453 b 53 722 136 453 53 557 m 821 242 b 1104 511 821 407 904 511 b 1388 242 1304 511 1388 407 b 1104 -28 1388 76 1304 -28 b 821 242 904 -28 821 76 "},"&":{"ha":1286,"x_min":0,"x_max":0,"o":"m 475 468 b 340 311 411 444 340 383 b 539 144 340 193 450 144 b 754 214 622 144 694 164 m 879 94 b 503 -28 763 10 650 -28 b 79 285 263 -28 79 69 b 350 575 79 439 192 535 b 250 756 289 628 250 671 b 574 992 250 935 421 992 b 917 771 763 992 917 921 b 706 547 917 647 814 579 l 919 350 b 1040 521 964 393 1019 471 l 1193 447 b 1051 236 1154 360 1121 303 l 1308 0 l 979 0 m 486 771 b 575 642 486 707 549 661 b 697 765 628 664 697 700 b 593 847 697 819 638 847 b 486 771 535 847 486 824 "},"’":{"ha":514,"x_min":0,"x_max":0,"o":"m 122 992 l 392 992 l 392 814 b 122 501 392 636 303 525 l 122 599 b 247 756 213 624 240 663 l 122 756 "},"(":{"ha":617,"x_min":0,"x_max":0,"o":"m 375 -264 b 106 364 210 -101 106 131 b 375 992 106 597 210 829 l 546 992 b 350 364 419 806 350 589 b 546 -264 350 139 419 -78 "},")":{"ha":617,"x_min":0,"x_max":0,"o":"m 71 -264 b 267 364 197 -78 267 139 b 71 992 267 589 197 806 l 242 992 b 511 364 407 829 511 597 b 242 -264 511 131 407 -101 "},"*":{"ha":644,"x_min":0,"x_max":0,"o":"m 215 675 l 33 735 l 81 871 l 254 803 l 246 992 l 399 992 l 390 803 l 564 871 l 611 735 l 429 675 l 557 528 l 444 442 l 322 594 l 200 442 l 88 528 "},"+":{"ha":833,"x_min":0,"x_max":0,"o":"m 331 265 l 65 265 l 65 438 l 331 438 l 331 703 l 503 703 l 503 438 l 768 438 l 768 265 l 503 265 l 503 0 l 331 0 "},",":{"ha":514,"x_min":0,"x_max":0,"o":"m 122 236 l 392 236 l 392 58 b 122 -254 392 -119 303 -231 l 122 -157 b 247 0 213 -132 240 -93 l 122 0 "},"-":{"ha":668,"x_min":0,"x_max":0,"o":"m 86 492 l 582 492 l 582 303 l 86 303 "},".":{"ha":514,"x_min":0,"x_max":0,"o":"m 122 236 l 392 236 l 392 0 l 122 0 "},"/":{"ha":592,"x_min":0,"x_max":0,"o":"m 408 1019 l 594 1019 l 185 -28 l -3 -28 "},":":{"ha":514,"x_min":0,"x_max":0,"o":"m 122 744 l 392 744 l 392 508 l 122 508 m 122 236 l 392 236 l 392 0 l 122 0 "},";":{"ha":514,"x_min":0,"x_max":0,"o":"m 122 236 l 392 236 l 392 58 b 122 -254 392 -119 303 -231 l 122 -157 b 247 0 213 -132 240 -93 l 122 0 m 122 744 l 392 744 l 392 508 l 122 508 "},"<":{"ha":833,"x_min":0,"x_max":0,"o":"m 65 424 l 768 714 l 768 542 l 297 351 l 768 161 l 768 -11 l 65 279 "},"=":{"ha":833,"x_min":0,"x_max":0,"o":"m 65 589 l 768 589 l 768 417 l 65 417 m 65 286 l 768 286 l 768 114 l 65 114 "},">":{"ha":833,"x_min":0,"x_max":0,"o":"m 768 279 l 65 -11 l 65 161 l 536 351 l 65 542 l 65 714 l 768 424 "},"?":{"ha":1054,"x_min":0,"x_max":0,"o":"m 393 319 b 718 713 393 583 718 543 b 536 836 718 789 632 836 b 328 658 426 836 339 783 l 67 658 b 513 1008 74 915 297 1008 b 988 707 797 1008 988 908 b 638 319 988 460 661 469 m 381 236 l 650 236 l 650 0 l 381 0 "},"@":{"ha":1111,"x_min":0,"x_max":0,"o":"m 413 450 b 515 332 413 385 453 332 b 682 519 613 332 682 433 b 574 631 682 582 633 631 b 413 450 482 631 413 531 m 751 754 l 875 754 l 793 401 b 785 344 786 369 785 354 b 811 315 785 325 794 315 b 960 561 874 315 960 408 b 579 892 960 767 792 892 b 185 493 343 892 185 713 b 589 100 185 264 360 100 b 896 194 717 100 819 142 l 1021 194 b 585 -28 922 53 767 -28 b 32 496 279 -28 32 193 b 581 1019 32 794 278 1019 b 1079 592 838 1019 1079 850 b 728 188 1079 293 817 188 b 639 263 676 188 643 213 l 636 263 b 467 188 599 222 540 188 b 260 428 365 188 260 278 b 563 775 260 600 378 775 b 733 681 633 775 692 746 "},"A":{"ha":1158,"x_min":0,"x_max":0,"o":"m 579 778 l 424 385 l 735 385 m 807 204 l 351 204 l 271 0 l -19 0 l 417 992 l 742 992 l 1178 0 l 888 0 "},"B":{"ha":1235,"x_min":0,"x_max":0,"o":"m 364 189 l 761 189 b 876 306 844 189 876 243 b 733 425 876 383 828 425 l 364 425 m 94 992 l 839 992 b 1118 742 983 992 1118 925 b 986 543 1118 665 1079 572 l 986 540 b 1163 300 1101 521 1163 407 b 801 0 1163 168 1101 0 l 94 0 m 364 597 l 739 597 b 840 704 801 597 840 631 b 701 811 840 767 813 811 l 364 811 "},"C":{"ha":1260,"x_min":0,"x_max":0,"o":"m 932 617 b 649 831 907 760 789 831 b 339 496 393 831 339 631 b 649 161 339 361 393 161 b 932 381 779 161 906 224 l 1225 381 b 639 -28 1192 92 954 -28 b 53 496 278 -28 53 128 b 639 1019 53 864 278 1019 b 1222 617 878 1019 1182 958 "},"D":{"ha":1260,"x_min":0,"x_max":0,"o":"m 364 189 l 664 189 b 922 506 842 189 922 296 b 639 803 922 689 844 803 l 364 803 m 94 992 l 713 992 b 1200 496 1053 992 1200 794 b 736 0 1200 197 1047 0 l 94 0 "},"E":{"ha":1081,"x_min":0,"x_max":0,"o":"m 94 992 l 1021 992 l 1021 803 l 364 803 l 364 597 l 988 597 l 988 417 l 364 417 l 364 189 l 1026 189 l 1026 0 l 94 0 "},"F":{"ha":1003,"x_min":0,"x_max":0,"o":"m 94 992 l 981 992 l 981 803 l 364 803 l 364 586 l 942 586 l 942 397 l 364 397 l 364 0 l 94 0 "},"G":{"ha":1311,"x_min":0,"x_max":0,"o":"m 722 553 l 1228 553 l 1228 0 l 1092 0 l 1056 115 b 639 -28 961 14 811 -28 b 53 496 278 -28 53 128 b 639 1019 53 803 264 1019 b 1222 667 914 1019 1174 939 l 922 667 b 669 831 882 794 767 831 b 339 496 425 831 339 650 b 669 161 339 342 425 161 b 963 381 817 161 931 217 l 722 381 "},"H":{"ha":1286,"x_min":0,"x_max":0,"o":"m 94 992 l 364 992 l 364 619 l 922 619 l 922 992 l 1192 992 l 1192 0 l 922 0 l 922 431 l 364 431 l 364 0 l 94 0 "},"I":{"ha":458,"x_min":0,"x_max":0,"o":"m 94 992 l 364 992 l 364 0 l 94 0 "},"J":{"ha":951,"x_min":0,"x_max":0,"o":"m 588 992 l 857 992 l 857 386 b 457 -28 857 215 849 -28 b 13 314 226 -28 13 32 l 13 376 l 282 376 l 282 307 b 428 153 282 214 338 153 b 588 353 568 153 588 236 "},"K":{"ha":1208,"x_min":0,"x_max":0,"o":"m 825 992 l 1188 992 l 732 593 l 1222 0 l 858 0 l 521 429 l 364 294 l 364 0 l 94 0 l 94 992 l 364 992 l 364 565 "},"L":{"ha":1003,"x_min":0,"x_max":0,"o":"m 94 992 l 364 992 l 364 197 l 968 197 l 968 0 l 94 0 "},"M":{"ha":1569,"x_min":0,"x_max":0,"o":"m 1079 992 l 1475 992 l 1475 0 l 1214 0 l 1214 794 l 1211 794 l 897 0 l 672 0 l 358 794 l 356 794 l 356 0 l 94 0 l 94 992 l 490 992 l 785 278 "},"N":{"ha":1286,"x_min":0,"x_max":0,"o":"m 931 992 l 1192 992 l 1192 0 l 899 0 l 358 692 l 356 692 l 356 0 l 94 0 l 94 992 l 407 992 l 928 300 l 931 300 "},"O":{"ha":1311,"x_min":0,"x_max":0,"o":"m 39 496 b 656 1019 39 703 122 1019 b 1272 496 1189 1019 1272 703 b 656 -28 1272 289 1189 -28 b 39 496 122 -28 39 289 m 325 496 b 656 161 325 342 411 161 b 986 496 900 161 986 342 b 656 831 986 650 900 831 b 325 496 411 831 325 650 "},"P":{"ha":1157,"x_min":0,"x_max":0,"o":"m 364 535 l 653 535 b 833 671 736 535 833 538 b 678 811 833 800 754 811 l 364 811 m 94 992 l 761 992 b 1111 690 1043 992 1111 824 b 782 354 1111 479 1000 354 l 364 354 l 364 0 l 94 0 "},"Q":{"ha":1311,"x_min":0,"x_max":0,"o":"m 675 243 l 799 379 l 915 276 b 986 496 967 340 986 421 b 656 831 986 650 900 831 b 325 496 411 831 325 650 b 656 161 325 342 411 161 b 754 174 692 161 724 165 m 938 13 b 656 -28 861 -14 768 -28 b 39 496 122 -28 39 289 b 656 1019 39 703 122 1019 b 1272 496 1189 1019 1272 703 b 1111 104 1272 374 1244 215 l 1250 -18 l 1126 -154 "},"R":{"ha":1183,"x_min":0,"x_max":0,"o":"m 364 553 l 721 553 b 850 679 781 553 850 586 b 707 803 850 778 772 803 l 364 803 m 94 992 l 815 992 b 1136 722 1090 992 1136 824 b 975 483 1136 601 1088 524 l 975 481 b 1111 215 1093 463 1111 313 b 1163 0 1111 167 1115 50 l 868 0 b 842 190 843 46 842 86 b 699 364 842 329 782 364 l 364 364 l 364 0 l 94 0 "},"S":{"ha":1132,"x_min":0,"x_max":0,"o":"m 765 704 b 517 847 749 833 625 847 b 333 731 406 847 333 797 b 447 638 333 678 378 649 l 785 583 b 1103 306 965 554 1103 486 b 588 -28 1103 121 978 -28 b 29 313 346 -28 32 3 l 332 313 b 588 153 335 176 471 153 b 800 276 714 153 800 190 b 632 390 800 353 739 374 l 386 428 b 47 708 214 454 47 506 b 539 1019 47 929 228 1019 b 1064 704 743 1019 1046 985 "},"T":{"ha":1003,"x_min":0,"x_max":0,"o":"m 367 803 l -1 803 l -1 992 l 1004 992 l 1004 803 l 636 803 l 636 0 l 367 0 "},"U":{"ha":1208,"x_min":0,"x_max":0,"o":"m 83 992 l 353 992 l 353 422 b 604 161 353 325 357 161 b 856 422 851 161 856 325 l 856 992 l 1125 992 l 1125 356 b 604 -28 1125 244 1111 -28 b 83 356 97 -28 83 244 "},"V":{"ha":1106,"x_min":0,"x_max":0,"o":"m -31 992 l 265 992 l 553 236 l 840 992 l 1136 992 l 696 0 l 410 0 "},"W":{"ha":1594,"x_min":0,"x_max":0,"o":"m -4 992 l 265 992 l 457 269 l 460 269 l 663 992 l 932 992 l 1135 269 l 1138 269 l 1329 992 l 1599 992 l 1285 0 l 1007 0 l 799 706 l 796 706 l 588 0 l 310 0 "},"X":{"ha":1106,"x_min":0,"x_max":0,"o":"m 397 511 l 11 992 l 335 992 l 553 683 l 771 992 l 1094 992 l 708 511 l 1129 0 l 794 0 l 553 335 l 311 0 l -24 0 "},"Y":{"ha":1081,"x_min":0,"x_max":0,"o":"m 406 346 l -33 992 l 283 992 l 540 560 l 797 992 l 1114 992 l 675 346 l 675 0 l 406 0 "},"Z":{"ha":1054,"x_min":0,"x_max":0,"o":"m 22 172 l 678 803 l 67 803 l 67 992 l 1032 992 l 1032 819 l 376 189 l 1032 189 l 1032 0 l 22 0 "},"[":{"ha":617,"x_min":0,"x_max":0,"o":"m 113 992 l 571 992 l 571 819 l 349 819 l 349 -92 l 571 -92 l 571 -264 l 113 -264 "},"\\":{"ha":592,"x_min":0,"x_max":0,"o":"m -3 1019 l 183 1019 l 594 -28 l 407 -28 "},"]":{"ha":617,"x_min":0,"x_max":0,"o":"m 504 -264 l 46 -264 l 46 -92 l 268 -92 l 268 819 l 46 819 l 46 992 l 504 992 "},"^":{"ha":833,"x_min":0,"x_max":0,"o":"m 78 429 l 338 964 l 496 964 l 756 429 l 583 429 l 417 775 l 250 429 "},"_":{"ha":694,"x_min":0,"x_max":0,"o":"m 0 -104 l 694 -104 l 694 -174 l 0 -174 "},"‘":{"ha":514,"x_min":0,"x_max":0,"o":"m 122 679 b 392 992 122 857 211 968 l 392 894 b 267 738 301 869 274 831 l 392 738 l 392 501 l 122 501 "},"a":{"ha":1029,"x_min":0,"x_max":0,"o":"m 715 363 b 571 331 669 340 619 335 l 429 318 b 300 221 343 311 300 288 b 454 117 300 154 363 117 b 715 301 578 117 715 176 m 86 517 b 526 772 115 746 326 772 b 951 519 876 772 951 658 l 951 150 b 979 0 951 85 963 38 l 735 0 b 718 79 726 26 719 53 b 369 -28 635 -4 479 -28 b 39 214 175 -28 39 40 b 347 443 39 394 199 433 l 607 461 b 707 539 682 467 707 479 b 515 628 707 599 657 628 b 322 517 411 628 357 619 "},"b":{"ha":1081,"x_min":0,"x_max":0,"o":"m 319 368 b 549 153 319 226 426 153 b 779 368 672 153 779 226 b 549 583 779 510 672 583 b 319 368 426 583 319 510 m 83 1008 l 328 1008 l 328 653 l 331 653 b 617 764 378 719 479 764 b 1032 364 851 764 1032 606 b 600 -28 1032 103 842 -28 b 322 93 497 -28 415 -7 l 319 93 l 319 0 l 83 0 "},"c":{"ha":1029,"x_min":0,"x_max":0,"o":"m 743 469 b 540 600 714 568 639 600 b 301 372 389 600 301 518 b 540 144 301 226 389 144 b 743 296 649 144 731 203 l 996 296 b 519 -28 951 32 763 -28 b 49 372 239 -28 49 92 b 540 772 49 653 246 772 b 996 469 729 772 950 715 "},"d":{"ha":1081,"x_min":0,"x_max":0,"o":"m 301 368 b 532 153 301 226 408 153 b 761 368 654 153 761 226 b 532 583 761 510 654 583 b 301 368 408 583 301 510 m 761 93 l 758 93 b 464 -28 679 -3 575 -28 b 49 364 232 -28 49 104 b 464 764 49 606 229 764 b 750 653 601 764 703 719 l 753 653 l 753 1008 l 997 1008 l 997 0 l 761 0 "},"e":{"ha":1053,"x_min":0,"x_max":0,"o":"m 997 222 b 533 -28 926 46 757 -28 b 42 372 239 -28 42 92 b 533 772 42 653 239 772 b 1011 329 856 772 1011 610 l 1011 307 l 294 307 l 294 304 b 533 125 294 233 367 125 b 736 222 632 125 701 158 m 758 451 l 758 454 b 528 619 758 494 707 619 b 294 454 335 619 294 472 l 294 451 "},"f":{"ha":592,"x_min":0,"x_max":0,"o":"m 163 581 l 8 581 l 8 744 l 163 744 l 163 782 b 451 1019 163 982 224 1019 b 606 1017 485 1019 546 1018 l 606 864 b 482 867 564 865 524 867 b 407 790 439 867 407 860 l 407 744 l 603 744 l 603 581 l 407 581 l 407 0 l 163 0 "},"g":{"ha":1081,"x_min":0,"x_max":0,"o":"m 301 388 b 535 183 301 217 428 183 b 769 388 643 183 769 217 b 535 592 769 558 643 592 b 301 388 428 592 301 558 m 778 744 l 1014 744 l 1014 60 b 536 -296 1014 -197 847 -296 b 79 -50 353 -296 104 -275 l 340 -50 b 544 -143 356 -111 403 -143 b 769 69 665 -143 769 -111 l 769 129 b 472 19 700 51 596 19 b 49 392 181 19 49 200 b 492 764 49 594 181 764 b 775 654 600 764 711 733 l 778 654 "},"h":{"ha":1029,"x_min":0,"x_max":0,"o":"m 83 1008 l 328 1008 l 328 636 l 331 636 b 626 764 367 699 483 764 b 946 496 753 764 946 715 l 946 0 l 701 0 l 701 422 b 538 575 701 525 647 575 b 328 360 424 575 328 518 l 328 0 l 83 0 "},"i":{"ha":411,"x_min":0,"x_max":0,"o":"m 83 744 l 328 744 l 328 0 l 83 0 m 83 1008 l 328 1008 l 328 836 l 83 836 "},"j":{"ha":411,"x_min":0,"x_max":0,"o":"m 83 744 l 328 744 l 328 6 b 57 -276 328 -172 303 -276 b -68 -271 10 -276 -29 -272 l -68 -90 b -6 -96 -43 -93 -19 -96 b 83 25 72 -96 83 -67 m 83 1008 l 328 1008 l 328 836 l 83 836 "},"k":{"ha":1003,"x_min":0,"x_max":0,"o":"m 83 1008 l 328 1008 l 328 467 l 651 744 l 992 744 l 638 461 l 1014 0 l 690 0 l 447 310 l 328 214 l 328 0 l 83 0 "},"l":{"ha":411,"x_min":0,"x_max":0,"o":"m 83 1008 l 328 1008 l 328 0 l 83 0 "},"m":{"ha":1569,"x_min":0,"x_max":0,"o":"m 1242 447 b 1092 575 1242 547 1163 575 b 907 403 990 575 907 519 l 907 0 l 663 0 l 663 447 b 515 575 663 547 583 575 b 328 403 411 575 328 519 l 328 0 l 83 0 l 83 744 l 319 744 l 319 636 l 322 636 b 626 764 367 699 483 764 b 883 624 768 764 846 708 b 1190 764 951 713 1054 764 b 1486 504 1340 764 1486 700 l 1486 0 l 1242 0 "},"n":{"ha":1029,"x_min":0,"x_max":0,"o":"m 701 422 b 538 575 701 525 647 575 b 328 360 424 575 328 518 l 328 0 l 83 0 l 83 744 l 319 744 l 319 636 l 322 636 b 626 764 367 699 483 764 b 946 496 753 764 946 715 l 946 0 l 701 0 "},"o":{"ha":1081,"x_min":0,"x_max":0,"o":"m 49 372 b 540 772 49 653 246 772 b 1032 372 835 772 1032 653 b 540 -28 1032 92 835 -28 b 49 372 246 -28 49 92 m 301 372 b 540 144 301 226 389 144 b 779 372 692 144 779 226 b 540 600 779 518 692 600 b 301 372 389 600 301 518 "},"p":{"ha":1081,"x_min":0,"x_max":0,"o":"m 319 368 b 549 153 319 226 426 153 b 779 368 672 153 779 226 b 549 583 779 510 672 583 b 319 368 426 583 319 510 m 83 744 l 319 744 l 319 643 l 322 643 b 600 764 415 743 497 764 b 1032 372 842 764 1032 633 b 617 -28 1032 131 851 -28 b 331 83 479 -28 378 17 l 328 83 l 328 -276 l 83 -276 "},"q":{"ha":1081,"x_min":0,"x_max":0,"o":"m 301 368 b 532 153 301 226 408 153 b 761 368 654 153 761 226 b 532 583 761 510 654 583 b 301 368 408 583 301 510 m 761 744 l 997 744 l 997 -276 l 753 -276 l 753 83 l 750 83 b 464 -28 703 17 601 -28 b 49 372 229 -28 49 131 b 481 764 49 633 239 764 b 758 643 583 764 665 743 l 761 643 "},"r":{"ha":721,"x_min":0,"x_max":0,"o":"m 83 744 l 319 744 l 319 599 l 322 599 b 619 764 411 713 481 764 b 708 757 647 764 681 763 l 708 528 b 574 550 664 540 619 550 b 328 321 407 550 328 465 l 328 0 l 83 0 "},"s":{"ha":978,"x_min":0,"x_max":0,"o":"m 310 231 b 492 125 321 167 365 125 b 668 206 603 125 668 151 b 529 281 668 247 647 264 l 307 311 b 63 522 151 332 63 381 b 469 772 63 724 267 772 b 910 521 813 772 893 660 l 640 521 b 475 619 626 597 546 619 b 315 540 411 619 315 614 b 439 471 315 506 333 482 l 608 453 b 938 224 857 426 938 353 b 478 -28 938 3 690 -28 b 40 231 196 -28 53 54 "},"t":{"ha":617,"x_min":0,"x_max":0,"o":"m 163 975 l 407 975 l 407 744 l 604 744 l 604 581 l 407 581 l 407 233 b 489 156 407 175 425 156 b 608 161 532 156 569 158 l 608 -3 b 417 -17 563 -8 471 -17 b 163 204 185 -17 163 69 l 163 581 l 8 581 l 8 744 l 163 744 "},"u":{"ha":1029,"x_min":0,"x_max":0,"o":"m 710 100 l 707 100 b 403 -28 663 38 546 -28 b 83 240 276 -28 83 21 l 83 744 l 328 744 l 328 314 b 494 161 328 211 382 161 b 701 372 626 161 701 235 l 701 744 l 946 744 l 946 0 l 710 0 "},"v":{"ha":928,"x_min":0,"x_max":0,"o":"m -17 744 l 261 744 l 464 222 l 667 744 l 944 744 l 603 0 l 325 0 "},"w":{"ha":1467,"x_min":0,"x_max":0,"o":"m 0 744 l 269 744 l 440 236 l 443 236 l 615 744 l 851 744 l 1024 236 l 1026 236 l 1197 744 l 1467 744 l 1189 0 l 896 0 l 735 481 l 732 481 l 571 0 l 278 0 "},"x":{"ha":1003,"x_min":0,"x_max":0,"o":"m 676 744 l 981 744 l 665 386 l 1007 0 l 689 0 l 497 246 l 308 0 l -4 0 l 335 386 l 22 744 l 329 744 l 500 517 "},"y":{"ha":900,"x_min":0,"x_max":0,"o":"m 922 744 l 515 -122 b 254 -276 457 -247 390 -276 b 82 -271 197 -276 139 -274 l 82 -99 b 188 -104 117 -101 153 -104 b 303 -28 247 -104 275 -79 l 328 26 l -22 744 l 243 744 l 456 253 l 661 744 "},"z":{"ha":900,"x_min":0,"x_max":0,"o":"m 36 153 l 507 564 l 63 564 l 63 744 l 847 744 l 847 592 l 376 181 l 864 181 l 864 0 l 36 0 "},"{":{"ha":617,"x_min":0,"x_max":0,"o":"m 418 519 b 281 365 418 436 363 376 l 281 363 b 418 199 374 350 418 292 l 418 -10 b 493 -111 418 -62 432 -111 l 549 -111 l 549 -264 l 381 -264 b 182 -76 261 -264 182 -204 l 182 179 b 53 304 182 250 125 304 l 53 424 b 182 539 119 424 182 471 l 182 804 b 381 992 182 924 251 992 l 549 992 l 549 839 l 493 839 b 418 738 431 839 418 790 "},"|":{"ha":308,"x_min":0,"x_max":0,"o":"m 68 1019 l 240 1019 l 240 -28 l 68 -28 "},"}":{"ha":617,"x_min":0,"x_max":0,"o":"m 199 208 b 336 363 199 292 254 351 l 336 365 b 199 529 243 378 199 436 l 199 738 b 124 839 199 790 185 839 l 68 839 l 68 992 l 236 992 b 435 804 356 992 435 932 l 435 549 b 564 424 435 478 492 424 l 564 304 b 435 189 497 304 435 257 l 435 -76 b 236 -264 435 -196 365 -264 l 68 -264 l 68 -111 l 124 -111 b 199 -10 186 -111 199 -62 "},"~":{"ha":833,"x_min":0,"x_max":0,"o":"m 738 338 b 567 218 700 267 647 218 b 403 265 499 218 449 242 b 271 313 357 289 317 313 b 146 218 217 313 161 253 l 96 365 b 267 485 133 436 186 485 b 431 438 335 485 385 461 b 563 390 476 414 517 390 b 688 485 617 390 672 450 "},"¡":{"ha":514,"x_min":0,"x_max":0,"o":"m 164 424 l 350 424 l 392 -247 l 122 -247 m 122 744 l 392 744 l 392 508 l 122 508 "},"¢":{"ha":1133,"x_min":0,"x_max":0,"o":"m 531 600 b 346 372 413 582 346 500 b 531 144 346 244 413 161 m 531 -28 b 93 372 267 -14 93 110 b 531 772 93 635 267 758 l 531 890 l 617 890 l 617 772 b 1040 469 799 765 997 701 l 788 469 b 617 600 763 556 700 593 l 617 144 b 788 296 710 157 776 213 l 1040 296 b 617 -28 999 46 826 -22 l 617 -175 l 531 -175 "},"£":{"ha":1133,"x_min":0,"x_max":0,"o":"m 85 550 l 164 550 b 128 685 143 594 128 635 b 597 992 128 939 375 992 b 1039 682 951 992 1039 808 l 1039 643 l 761 643 b 590 803 757 751 696 803 b 406 664 461 803 406 736 b 433 550 406 639 415 601 l 681 550 l 681 422 l 453 422 b 456 385 454 411 456 399 b 346 188 456 301 414 240 l 346 185 b 492 217 392 203 442 217 b 767 186 569 221 660 182 b 989 257 850 186 942 217 l 1061 65 b 767 -28 975 0 879 -28 b 374 28 633 -28 528 28 b 174 -28 296 28 240 13 l 72 149 b 211 346 149 196 211 249 b 200 422 211 372 206 399 l 85 422 "},"⁄":{"ha":232,"x_min":0,"x_max":0,"o":"m 301 992 l 433 992 l -69 -28 l -201 -28 "},"¥":{"ha":1133,"x_min":0,"x_max":0,"o":"m 428 175 l 150 175 l 150 303 l 428 303 l 428 360 l 390 414 l 150 414 l 150 542 l 303 542 l 14 964 l 326 964 l 565 561 l 568 561 l 813 964 l 1119 964 l 824 542 l 975 542 l 975 414 l 735 414 l 697 360 l 697 303 l 975 303 l 975 175 l 697 175 l 697 0 l 428 0 "},"ƒ":{"ha":1133,"x_min":0,"x_max":0,"o":"m 289 550 l 457 550 l 506 790 b 799 992 539 950 649 992 b 963 981 864 992 906 986 l 929 821 b 847 828 904 825 879 828 b 729 686 768 828 750 786 l 701 550 l 871 550 l 843 422 l 675 422 l 585 -25 b 251 -276 544 -226 471 -276 b 115 -262 208 -276 165 -271 l 147 -107 b 214 -112 174 -111 200 -112 b 343 -12 290 -112 328 -92 l 431 422 l 263 422 "},"§":{"ha":1133,"x_min":0,"x_max":0,"o":"m 375 17 b 590 -112 388 -97 494 -112 b 753 -28 700 -112 753 -75 b 460 111 753 31 729 49 b 51 421 200 171 51 250 b 196 633 51 519 100 603 b 140 765 154 667 140 714 b 522 1019 140 958 346 1019 b 986 739 728 1019 960 983 l 725 739 b 539 856 722 790 710 856 b 393 765 439 856 393 815 b 510 683 393 717 426 704 l 789 611 b 1082 353 978 563 1082 469 b 947 135 1082 250 1036 165 b 1014 -11 993 96 1014 58 b 574 -276 1014 -162 861 -276 b 114 17 329 -276 131 -203 m 338 536 b 279 444 307 515 279 482 b 447 321 279 363 381 340 l 804 217 b 854 310 831 242 854 271 b 719 421 854 381 779 403 "},"¤":{"ha":1133,"x_min":0,"x_max":0,"o":"m 567 686 b 371 482 453 686 371 600 b 567 278 371 364 453 278 b 763 482 681 278 763 364 b 567 686 763 600 681 686 m 261 275 b 199 482 222 332 199 406 b 261 689 199 557 221 629 l 181 769 l 279 868 l 360 788 b 567 850 419 828 492 850 b 774 788 643 850 715 826 l 854 868 l 953 769 l 872 689 b 935 482 913 629 935 557 b 871 276 935 407 913 335 l 953 194 l 854 96 l 772 178 b 567 114 714 136 642 114 b 361 178 492 114 419 136 l 279 96 l 181 194 "},"'":{"ha":514,"x_min":0,"x_max":0,"o":"m 171 992 l 343 992 l 343 501 l 171 501 "},"“":{"ha":822,"x_min":0,"x_max":0,"o":"m 83 679 b 353 992 83 857 172 968 l 353 894 b 228 738 263 869 235 831 l 353 738 l 353 501 l 83 501 m 469 679 b 739 992 469 857 558 968 l 739 894 b 614 738 649 869 621 831 l 739 738 l 739 501 l 469 501 "},"«":{"ha":849,"x_min":0,"x_max":0,"o":"m 450 507 l 719 704 l 719 519 l 553 397 l 719 275 l 719 90 l 450 288 m 115 507 l 385 704 l 385 519 l 218 397 l 385 275 l 385 90 l 115 288 "},"‹":{"ha":514,"x_min":0,"x_max":0,"o":"m 115 507 l 385 704 l 385 519 l 218 397 l 385 275 l 385 90 l 115 288 "},"›":{"ha":514,"x_min":0,"x_max":0,"o":"m 129 275 l 296 397 l 129 519 l 129 704 l 399 507 l 399 288 l 129 90 "},"ﬁ":{"ha":1003,"x_min":0,"x_max":0,"o":"m 675 744 l 919 744 l 919 0 l 675 0 m 675 1008 l 919 1008 l 919 836 l 675 836 m 163 581 l 8 581 l 8 744 l 163 744 l 163 782 b 451 1019 163 982 224 1019 b 606 1017 485 1019 546 1018 l 606 864 b 482 867 564 865 524 867 b 407 790 439 867 407 860 l 407 744 l 603 744 l 603 581 l 407 581 l 407 0 l 163 0 "},"ﬂ":{"ha":1003,"x_min":0,"x_max":0,"o":"m 675 1008 l 919 1008 l 919 0 l 675 0 m 163 581 l 8 581 l 8 744 l 163 744 l 163 782 b 451 1019 163 982 224 1019 b 606 1017 485 1019 546 1018 l 606 864 b 482 867 564 865 524 867 b 407 790 439 867 407 860 l 407 744 l 603 744 l 603 581 l 407 581 l 407 0 l 163 0 "},"–":{"ha":694,"x_min":0,"x_max":0,"o":"m 0 483 l 694 483 l 694 311 l 0 311 "},"†":{"ha":1133,"x_min":0,"x_max":0,"o":"m 440 511 l 107 511 l 107 700 l 440 700 l 440 992 l 693 992 l 693 700 l 1026 700 l 1026 511 l 693 511 l 693 -276 l 440 -276 "},"‡":{"ha":1133,"x_min":0,"x_max":0,"o":"m 444 8 l 107 8 l 107 181 l 444 181 l 444 535 l 107 535 l 107 707 l 444 707 l 444 992 l 689 992 l 689 707 l 1026 707 l 1026 535 l 689 535 l 689 181 l 1026 181 l 1026 8 l 689 8 l 689 -276 l 444 -276 "},"·":{"ha":514,"x_min":0,"x_max":0,"o":"m 114 382 b 257 525 114 460 181 525 b 400 382 333 525 400 460 b 257 239 400 304 333 239 b 114 382 181 239 114 304 "},"¶":{"ha":861,"x_min":0,"x_max":0,"o":"m 319 440 b 1 711 113 440 1 536 b 349 992 1 933 142 992 l 808 992 l 808 -249 l 628 -249 l 628 856 l 500 856 l 500 -249 l 319 -249 "},"•":{"ha":694,"x_min":0,"x_max":0,"o":"m 99 496 b 347 744 99 633 210 744 b 596 496 485 744 596 633 b 347 247 596 358 485 247 b 99 496 210 247 99 358 "},"‚":{"ha":514,"x_min":0,"x_max":0,"o":"m 122 236 l 392 236 l 392 58 b 122 -254 392 -119 303 -231 l 122 -157 b 247 0 213 -132 240 -93 l 122 0 "},"„":{"ha":822,"x_min":0,"x_max":0,"o":"m 469 236 l 739 236 l 739 58 b 469 -254 739 -119 650 -231 l 469 -157 b 594 0 560 -132 588 -93 l 469 0 m 83 236 l 353 236 l 353 58 b 83 -254 353 -119 264 -231 l 83 -157 b 208 0 174 -132 201 -93 l 83 0 "},"”":{"ha":822,"x_min":0,"x_max":0,"o":"m 469 992 l 739 992 l 739 814 b 469 501 739 636 650 525 l 469 599 b 594 756 560 624 588 663 l 469 756 m 83 992 l 353 992 l 353 814 b 83 501 353 636 264 525 l 83 599 b 208 756 174 624 201 663 l 83 756 "},"»":{"ha":849,"x_min":0,"x_max":0,"o":"m 129 275 l 296 397 l 129 519 l 129 704 l 399 507 l 399 288 l 129 90 m 464 275 l 631 397 l 464 519 l 464 704 l 733 507 l 733 288 l 464 90 "},"…":{"ha":1389,"x_min":0,"x_max":0,"o":"m 97 236 l 367 236 l 367 0 l 97 0 m 560 236 l 829 236 l 829 0 l 560 0 m 1022 236 l 1292 236 l 1292 0 l 1022 0 "},"‰":{"ha":1621,"x_min":0,"x_max":0,"o":"m 150 742 b 246 586 150 640 168 586 b 342 742 324 586 342 640 b 246 897 342 843 324 897 b 150 742 168 897 150 843 m 789 992 l 925 992 l 294 -28 l 158 -28 m 743 222 b 839 67 743 121 761 67 b 935 222 917 67 935 121 b 839 378 935 324 917 378 b 743 222 761 378 743 324 m 6 742 b 246 992 6 914 101 992 b 486 742 390 992 486 914 b 246 492 486 569 390 492 b 6 742 101 492 6 569 m 599 222 b 839 472 599 394 694 472 b 1079 222 983 472 1079 394 b 839 -28 1079 50 983 -28 b 599 222 694 -28 599 50 m 1135 222 b 1375 472 1135 394 1231 472 b 1615 222 1519 472 1615 394 b 1375 -28 1615 50 1519 -28 b 1135 222 1231 -28 1135 50 m 1279 222 b 1375 67 1279 121 1297 67 b 1471 222 1453 67 1471 121 b 1375 378 1471 324 1453 378 b 1279 222 1297 378 1279 324 "},"¿":{"ha":1054,"x_min":0,"x_max":0,"o":"m 661 425 b 336 32 661 161 336 201 b 518 -92 336 -44 422 -92 b 726 86 628 -92 715 -39 l 988 86 b 542 -264 981 -171 757 -264 b 67 38 257 -264 67 -164 b 417 425 67 285 393 275 m 404 744 l 674 744 l 674 508 l 404 508 "},"`":{"ha":361,"x_min":0,"x_max":0,"o":"m -93 1035 l 206 1035 l 329 838 l 107 838 "},"´":{"ha":361,"x_min":0,"x_max":0,"o":"m 156 1035 l 454 1035 l 254 838 l 32 838 "},"ˆ":{"ha":361,"x_min":0,"x_max":0,"o":"m 19 1035 l 342 1035 l 542 838 l 281 838 l 171 950 l 64 838 l -181 838 "},"˜":{"ha":361,"x_min":0,"x_max":0,"o":"m -161 843 b 38 1035 -129 954 -69 1035 b 340 974 110 1035 257 974 b 408 1028 378 974 403 989 l 522 1028 b 342 838 508 922 461 838 b 26 907 263 838 79 907 b -42 843 -10 907 -31 876 "},"¯":{"ha":361,"x_min":0,"x_max":0,"o":"m -154 1011 l 515 1011 l 515 867 l -154 867 "},"˘":{"ha":361,"x_min":0,"x_max":0,"o":"m 29 1035 b 181 950 35 963 121 950 b 332 1035 240 950 326 963 l 468 1035 b 181 822 458 856 297 822 b -107 1035 64 822 -97 856 "},"˙":{"ha":361,"x_min":0,"x_max":0,"o":"m 58 1001 l 303 1001 l 303 838 l 58 838 "},"¨":{"ha":361,"x_min":0,"x_max":0,"o":"m -140 1001 l 104 1001 l 104 838 l -140 838 m 257 1001 l 501 1001 l 501 838 l 257 838 "},"˚":{"ha":361,"x_min":0,"x_max":0,"o":"m 15 985 b 192 1161 15 1082 94 1161 b 368 985 289 1161 368 1082 b 192 808 368 888 289 808 b 15 985 94 808 15 888 m 101 985 b 192 894 101 935 142 894 b 282 985 242 894 282 935 b 192 1075 282 1035 242 1075 b 101 985 142 1075 101 1035 "},"¸":{"ha":361,"x_min":0,"x_max":0,"o":"m 129 0 l 217 0 l 175 -65 b 236 -60 196 -61 217 -60 b 368 -171 303 -60 368 -94 b 171 -296 368 -274 250 -296 b -7 -276 85 -296 15 -283 l 17 -204 b 129 -218 56 -215 93 -218 b 196 -171 169 -218 196 -204 b 147 -128 196 -142 178 -128 b 82 -140 125 -128 103 -133 l 54 -115 "},"˝":{"ha":361,"x_min":0,"x_max":0,"o":"m 351 1035 l 650 1035 l 450 838 l 228 838 m -44 1035 l 254 1035 l 54 838 l -168 838 "},"˛":{"ha":361,"x_min":0,"x_max":0,"o":"m 467 -253 b 292 -296 424 -282 351 -296 b 117 -175 174 -296 117 -251 b 294 0 117 -87 186 -31 l 394 0 b 289 -144 340 -26 289 -85 b 367 -210 289 -189 321 -210 b 450 -190 388 -210 421 -203 "},"ˇ":{"ha":361,"x_min":0,"x_max":0,"o":"m 342 838 l 19 838 l -181 1035 l 81 1035 l 190 922 l 297 1035 l 542 1035 "},"—":{"ha":1389,"x_min":0,"x_max":0,"o":"m 0 483 l 1389 483 l 1389 311 l 0 311 "},"Æ":{"ha":1594,"x_min":0,"x_max":0,"o":"m 454 403 l 732 403 l 732 811 l 667 811 m 503 992 l 1535 992 l 1535 803 l 976 803 l 976 597 l 1515 597 l 1515 417 l 976 417 l 976 189 l 1540 189 l 1540 0 l 732 0 l 732 231 l 372 231 l 247 0 l -46 0 "},"ª":{"ha":669,"x_min":0,"x_max":0,"o":"m 450 744 b 349 721 421 729 381 724 l 278 714 b 201 667 236 710 201 696 b 293 614 201 636 242 614 b 450 714 361 614 450 649 m 622 588 b 640 528 622 565 626 550 l 476 528 b 463 583 467 543 463 558 l 460 583 b 244 511 413 524 314 511 b 29 654 118 511 29 551 b 229 789 29 763 133 782 l 399 801 b 458 840 440 804 458 813 b 339 889 458 871 425 889 b 221 833 279 889 244 883 l 57 833 b 346 992 76 979 221 992 b 622 846 574 992 622 924 "},"Ł":{"ha":1003,"x_min":0,"x_max":0,"o":"m 94 285 l 0 224 l 0 413 l 94 474 l 94 992 l 364 992 l 364 650 l 578 789 l 578 600 l 364 461 l 364 197 l 968 197 l 968 0 l 94 0 "},"Ø":{"ha":1311,"x_min":0,"x_max":0,"o":"m 165 138 b 39 496 63 246 39 386 b 656 1019 39 703 122 1019 b 1074 915 846 1019 979 979 l 1213 1035 l 1272 964 l 1144 856 b 1272 496 1249 749 1272 607 b 656 -28 1272 289 1189 -28 b 238 76 463 -28 329 14 l 99 -42 l 39 29 m 883 753 b 656 831 832 799 757 831 b 325 496 411 831 325 650 b 371 314 325 435 339 369 m 428 240 b 656 161 479 193 554 161 b 986 496 900 161 986 342 b 940 679 986 557 972 622 "},"Œ":{"ha":1621,"x_min":0,"x_max":0,"o":"m 799 85 b 510 -28 714 3 633 -28 b 49 490 221 -28 49 203 b 510 1019 49 788 221 1019 b 799 914 621 1019 719 997 l 799 992 l 1560 992 l 1560 803 l 1035 803 l 1035 597 l 1542 597 l 1542 417 l 1035 417 l 1035 189 l 1567 189 l 1567 0 l 799 0 m 799 683 b 571 831 799 711 731 831 b 318 494 424 831 318 704 b 576 161 318 240 450 161 b 799 321 721 161 799 283 "},"º":{"ha":703,"x_min":0,"x_max":0,"o":"m 32 751 b 351 992 32 919 160 992 b 671 751 543 992 671 919 b 351 511 671 583 543 511 b 32 751 160 511 32 583 m 204 753 b 351 622 204 672 261 622 b 499 753 442 622 499 672 b 351 881 499 832 442 881 b 204 753 261 881 204 832 "},"æ":{"ha":1594,"x_min":0,"x_max":0,"o":"m 685 350 b 426 315 631 333 590 329 b 294 218 326 307 294 276 b 447 125 294 139 388 125 b 685 314 588 125 685 188 m 83 511 b 506 772 110 697 253 772 b 819 675 607 772 733 751 b 1111 772 871 728 979 772 b 1553 378 1389 772 1553 588 b 1550 307 1553 354 1553 331 l 890 307 b 1119 125 893 186 983 125 b 1299 215 1204 125 1250 147 l 1543 215 b 1125 -28 1463 36 1318 -28 b 779 103 929 -28 847 33 b 371 -28 654 1 535 -28 b 42 213 190 -28 42 36 b 328 435 42 336 117 421 l 576 451 b 685 519 674 458 685 478 b 506 619 685 607 600 619 b 319 511 382 619 340 596 m 1317 443 b 1103 619 1299 563 1219 619 b 890 443 985 619 911 561 "},"ı":{"ha":411,"x_min":0,"x_max":0,"o":"m 83 744 l 328 744 l 328 0 l 83 0 "},"ł":{"ha":411,"x_min":0,"x_max":0,"o":"m 83 332 l 0 268 l 0 440 l 83 504 l 83 1008 l 328 1008 l 328 667 l 411 725 l 411 553 l 328 494 l 328 0 l 83 0 "},"ø":{"ha":1081,"x_min":0,"x_max":0,"o":"m 701 553 b 540 600 663 583 608 600 b 301 372 389 600 301 518 b 331 250 301 324 311 283 m 382 189 b 540 144 419 160 474 144 b 779 372 692 144 779 226 b 753 490 779 419 769 460 m 146 100 b 49 372 85 163 49 253 b 540 772 49 653 246 772 b 872 693 675 772 790 747 l 988 788 l 1040 725 l 938 640 b 1032 372 999 578 1032 489 b 540 -28 1032 92 835 -28 b 211 50 408 -28 296 -4 l 90 -49 l 40 14 "},"œ":{"ha":1594,"x_min":0,"x_max":0,"o":"m 1317 443 b 1110 619 1294 558 1222 619 b 907 443 999 619 932 551 m 907 307 b 1119 125 918 169 1013 125 b 1299 215 1204 125 1250 147 l 1543 215 b 1125 -28 1463 36 1318 -28 b 804 97 1000 -28 889 3 b 479 -28 718 1 600 -28 b 42 367 149 -24 42 167 b 489 772 42 547 143 772 b 808 650 607 772 718 735 b 1111 772 863 710 967 772 b 1553 378 1389 772 1553 588 b 1550 307 1553 354 1553 331 m 710 369 b 500 600 710 494 649 600 b 286 369 347 600 286 494 b 500 136 286 242 347 136 b 710 369 649 136 710 242 "},"ß":{"ha":1054,"x_min":0,"x_max":0,"o":"m 83 679 b 531 1019 83 940 247 1019 b 956 746 771 1019 956 960 b 818 567 956 633 871 579 l 818 564 b 1013 307 933 535 1013 458 b 599 -17 1013 72 833 -17 b 431 0 543 -17 486 -10 l 431 172 b 560 164 467 168 510 164 b 760 324 657 164 760 194 b 560 467 760 421 696 467 l 451 467 l 451 619 l 535 619 b 694 731 635 619 694 653 b 528 847 694 810 624 847 b 328 649 372 847 328 785 l 328 0 l 83 0 "},"¹":{"ha":501,"x_min":0,"x_max":0,"o":"m 211 747 l 25 747 l 25 875 b 247 975 160 878 211 888 l 400 975 l 400 397 l 211 397 "},"¬":{"ha":833,"x_min":0,"x_max":0,"o":"m 596 417 l 65 417 l 65 589 l 768 589 l 768 136 l 596 136 "},"µ":{"ha":1029,"x_min":0,"x_max":0,"o":"m 946 0 l 710 0 l 710 100 l 707 100 b 461 -28 649 0 525 -28 b 328 13 410 -28 356 -11 l 328 -276 l 83 -276 l 83 744 l 328 744 l 328 314 b 494 161 328 211 382 161 b 701 372 626 161 701 235 l 701 744 l 946 744 "},"™":{"ha":1389,"x_min":0,"x_max":0,"o":"m 1189 811 l 1186 811 l 1057 419 l 921 419 l 792 811 l 789 811 l 789 419 l 636 419 l 636 992 l 872 992 l 988 644 l 990 644 l 1106 992 l 1342 992 l 1342 419 l 1189 419 m 218 856 l 69 856 l 69 992 l 539 992 l 539 856 l 390 856 l 390 419 l 218 419 "},"Ð":{"ha":1260,"x_min":0,"x_max":0,"o":"m 94 425 l 0 425 l 0 597 l 94 597 l 94 992 l 713 992 b 1200 496 1053 992 1200 794 b 736 0 1200 197 1047 0 l 94 0 m 364 597 l 594 597 l 594 425 l 364 425 l 364 189 l 664 189 b 922 506 842 189 922 296 b 639 803 922 689 844 803 l 364 803 "},"½":{"ha":1697,"x_min":0,"x_max":0,"o":"m 903 992 l 1035 992 l 532 -28 l 400 -28 m 914 0 b 1375 394 932 347 1375 261 b 1268 475 1375 442 1331 475 b 1138 367 1218 475 1147 449 l 932 367 b 1269 594 940 543 1086 594 b 1581 411 1501 594 1581 496 b 1353 221 1581 311 1497 257 b 1139 136 1274 201 1181 178 l 1581 136 l 1581 0 m 264 747 l 78 747 l 78 875 b 300 975 213 878 264 888 l 453 975 l 453 397 l 264 397 "},"±":{"ha":833,"x_min":0,"x_max":0,"o":"m 331 703 l 503 703 l 503 553 l 768 553 l 768 381 l 503 381 l 503 231 l 331 231 l 331 381 l 65 381 l 65 553 l 331 553 m 65 172 l 768 172 l 768 0 l 65 0 "},"Þ":{"ha":1157,"x_min":0,"x_max":0,"o":"m 364 358 l 653 358 b 833 494 736 358 833 361 b 678 633 833 622 754 633 l 364 633 m 94 992 l 364 992 l 364 814 l 782 814 b 1111 514 1042 814 1111 642 b 782 178 1111 303 1000 178 l 364 178 l 364 0 l 94 0 "},"¼":{"ha":1697,"x_min":0,"x_max":0,"o":"m 1294 458 l 1090 232 l 1294 232 m 1294 113 l 910 113 l 910 226 l 1260 578 l 1467 578 l 1467 232 l 1581 232 l 1581 113 l 1467 113 l 1467 0 l 1294 0 m 903 992 l 1035 992 l 532 -28 l 400 -28 m 264 747 l 78 747 l 78 875 b 300 975 213 878 264 888 l 453 975 l 453 397 l 264 397 "},"÷":{"ha":833,"x_min":0,"x_max":0,"o":"m 65 438 l 768 438 l 768 265 l 65 265 m 282 646 b 417 781 282 721 342 781 b 551 646 492 781 551 721 b 417 511 551 571 492 511 b 282 646 342 511 282 571 m 282 57 b 417 192 282 132 342 192 b 551 57 492 192 551 132 b 417 -78 551 -18 492 -78 b 282 57 342 -78 282 -18 "},"¦":{"ha":308,"x_min":0,"x_max":0,"o":"m 68 354 l 240 354 l 240 -28 l 68 -28 m 68 1019 l 240 1019 l 240 638 l 68 638 "},"°":{"ha":556,"x_min":0,"x_max":0,"o":"m 72 786 b 278 992 72 900 164 992 b 483 786 392 992 483 900 b 278 581 483 672 392 581 b 72 786 164 581 72 672 m 175 786 b 278 683 175 729 221 683 b 381 786 335 683 381 729 b 278 889 381 843 335 889 b 175 786 221 889 175 843 "},"þ":{"ha":1081,"x_min":0,"x_max":0,"o":"m 319 368 b 549 153 319 226 426 153 b 779 368 672 153 779 226 b 549 583 779 510 672 583 b 319 368 426 583 319 510 m 83 1008 l 328 1008 l 328 643 l 331 643 b 600 764 390 722 482 764 b 1032 372 842 764 1032 633 b 617 -28 1032 131 851 -28 b 331 83 479 -28 378 17 l 328 83 l 328 -276 l 83 -276 "},"¾":{"ha":1697,"x_min":0,"x_max":0,"o":"m 1063 992 l 1194 992 l 692 -28 l 560 -28 m 314 761 l 432 761 b 513 814 489 761 513 783 b 404 872 513 849 472 872 b 290 810 356 872 303 847 l 97 810 b 425 992 115 957 271 992 b 718 824 629 992 718 928 b 617 711 718 763 679 724 l 617 708 b 744 575 694 696 744 642 b 397 381 744 478 675 381 b 78 585 208 381 85 433 l 275 585 b 413 500 276 521 351 500 b 539 574 488 500 539 531 b 422 642 539 624 486 642 l 314 642 m 1294 113 l 910 113 l 910 226 l 1260 578 l 1467 578 l 1467 232 l 1581 232 l 1581 113 l 1467 113 l 1467 0 l 1294 0 m 1294 232 l 1294 458 l 1090 232 "},"²":{"ha":736,"x_min":0,"x_max":0,"o":"m 35 397 b 496 792 53 744 496 658 b 389 872 496 839 451 872 b 258 764 339 872 268 846 l 53 764 b 390 992 61 940 207 992 b 701 808 622 992 701 893 b 474 618 701 708 618 654 b 260 533 394 599 301 575 l 701 533 l 701 397 "},"®":{"ha":1111,"x_min":0,"x_max":0,"o":"m 347 782 l 571 782 b 792 603 721 782 792 718 b 646 442 792 506 729 451 l 789 208 l 653 208 l 524 436 l 475 436 l 475 208 l 347 208 m 475 539 l 569 539 b 664 610 625 539 664 549 b 557 679 664 672 603 679 l 475 679 m 185 496 b 556 108 185 258 335 108 b 926 496 776 108 926 258 b 556 883 926 733 776 883 b 185 496 335 883 185 733 m 32 496 b 556 1019 32 785 267 1019 b 1079 496 844 1019 1079 785 b 556 -28 1079 207 844 -28 b 32 496 267 -28 32 207 "},"−":{"ha":833,"x_min":0,"x_max":0,"o":"m 65 438 l 768 438 l 768 265 l 65 265 "},"ð":{"ha":1081,"x_min":0,"x_max":0,"o":"m 301 351 b 540 144 301 226 389 144 b 779 351 692 144 779 226 b 540 556 779 482 692 556 b 301 351 389 556 301 482 m 744 1068 l 838 1011 l 681 939 b 1024 408 931 792 1024 597 b 540 -28 1024 169 903 -28 b 49 358 246 -28 49 92 b 488 728 49 603 274 728 b 701 657 578 728 658 696 l 704 657 b 471 843 632 754 565 804 l 292 761 l 206 822 l 361 894 b 214 942 322 913 269 929 l 350 1071 b 586 996 426 1054 514 1026 "},"×":{"ha":833,"x_min":0,"x_max":0,"o":"m 299 351 l 82 567 l 201 686 l 417 469 l 632 686 l 751 567 l 535 351 l 751 136 l 632 17 l 417 233 l 201 17 l 82 136 "},"³":{"ha":736,"x_min":0,"x_max":0,"o":"m 271 761 l 389 761 b 469 814 446 761 469 783 b 361 872 469 849 429 872 b 247 810 313 872 260 847 l 54 810 b 382 992 72 957 228 992 b 675 824 586 992 675 928 b 574 711 675 763 636 724 l 574 708 b 701 575 651 696 701 642 b 354 381 701 478 632 381 b 35 585 165 381 42 433 l 232 585 b 369 500 233 521 308 500 b 496 574 444 500 496 531 b 379 642 496 624 443 642 l 271 642 "},"©":{"ha":1111,"x_min":0,"x_max":0,"o":"m 832 413 b 576 192 811 271 696 192 b 281 500 392 192 281 326 b 572 808 281 676 386 808 b 825 592 697 808 806 733 l 689 592 b 565 681 675 644 632 681 b 417 500 471 681 417 601 b 564 319 417 403 476 319 b 688 413 629 319 681 356 m 32 496 b 556 1019 32 785 267 1019 b 1079 496 844 1019 1079 785 b 556 -28 1079 207 844 -28 b 32 496 267 -28 32 207 m 185 496 b 556 108 185 258 335 108 b 926 496 776 108 926 258 b 556 883 926 733 776 883 b 185 496 335 883 185 733 "},"Á":{"ha":1158,"x_min":0,"x_max":0,"o":"m 579 778 l 424 385 l 735 385 m 807 204 l 351 204 l 271 0 l -19 0 l 417 992 l 742 992 l 1178 0 l 888 0 m 554 1254 l 853 1254 l 653 1057 l 431 1057 "},"Â":{"ha":1158,"x_min":0,"x_max":0,"o":"m 579 778 l 424 385 l 735 385 m 807 204 l 351 204 l 271 0 l -19 0 l 417 992 l 742 992 l 1178 0 l 888 0 m 418 1254 l 740 1254 l 940 1057 l 679 1057 l 569 1169 l 463 1057 l 218 1057 "},"Ä":{"ha":1158,"x_min":0,"x_max":0,"o":"m 579 778 l 424 385 l 735 385 m 807 204 l 351 204 l 271 0 l -19 0 l 417 992 l 742 992 l 1178 0 l 888 0 m 258 1221 l 503 1221 l 503 1057 l 258 1057 m 656 1221 l 900 1221 l 900 1057 l 656 1057 "},"À":{"ha":1158,"x_min":0,"x_max":0,"o":"m 579 778 l 424 385 l 735 385 m 807 204 l 351 204 l 271 0 l -19 0 l 417 992 l 742 992 l 1178 0 l 888 0 m 306 1254 l 604 1254 l 728 1057 l 506 1057 "},"Å":{"ha":1158,"x_min":0,"x_max":0,"o":"m 579 778 l 424 385 l 735 385 m 807 204 l 351 204 l 271 0 l -19 0 l 417 992 l 742 992 l 1178 0 l 888 0 m 414 1190 b 590 1367 414 1288 493 1367 b 767 1190 688 1367 767 1288 b 590 1014 767 1093 688 1014 b 414 1190 493 1014 414 1093 m 500 1190 b 590 1100 500 1140 540 1100 b 681 1190 640 1100 681 1140 b 590 1281 681 1240 640 1281 b 500 1190 540 1281 500 1240 "},"Ã":{"ha":1158,"x_min":0,"x_max":0,"o":"m 579 778 l 424 385 l 735 385 m 807 204 l 351 204 l 271 0 l -19 0 l 417 992 l 742 992 l 1178 0 l 888 0 m 238 1063 b 436 1254 269 1174 329 1254 b 739 1193 508 1254 656 1193 b 807 1247 776 1193 801 1208 l 921 1247 b 740 1057 907 1142 860 1057 b 425 1126 661 1057 478 1126 b 357 1063 389 1126 368 1096 "},"Ç":{"ha":1260,"x_min":0,"x_max":0,"o":"m 1225 381 b 649 -28 1192 94 958 -25 l 625 -65 b 686 -60 646 -61 667 -60 b 818 -171 753 -60 818 -94 b 621 -296 818 -274 700 -296 b 443 -276 535 -296 465 -283 l 467 -204 b 579 -218 506 -215 543 -218 b 646 -171 619 -218 646 -204 b 597 -128 646 -142 628 -128 b 532 -140 575 -128 553 -133 l 504 -115 l 564 -24 b 53 496 246 -4 53 154 b 639 1019 53 864 278 1019 b 1222 617 878 1019 1182 958 l 932 617 b 649 831 907 760 789 831 b 339 496 393 831 339 631 b 649 161 339 361 393 161 b 932 381 779 161 906 224 "},"É":{"ha":1081,"x_min":0,"x_max":0,"o":"m 94 992 l 1021 992 l 1021 803 l 364 803 l 364 597 l 988 597 l 988 417 l 364 417 l 364 189 l 1026 189 l 1026 0 l 94 0 m 515 1254 l 814 1254 l 614 1057 l 392 1057 "},"Ê":{"ha":1081,"x_min":0,"x_max":0,"o":"m 94 992 l 1021 992 l 1021 803 l 364 803 l 364 597 l 988 597 l 988 417 l 364 417 l 364 189 l 1026 189 l 1026 0 l 94 0 m 379 1254 l 701 1254 l 901 1057 l 640 1057 l 531 1169 l 424 1057 l 179 1057 "},"Ë":{"ha":1081,"x_min":0,"x_max":0,"o":"m 94 992 l 1021 992 l 1021 803 l 364 803 l 364 597 l 988 597 l 988 417 l 364 417 l 364 189 l 1026 189 l 1026 0 l 94 0 m 219 1221 l 464 1221 l 464 1057 l 219 1057 m 617 1221 l 861 1221 l 861 1057 l 617 1057 "},"È":{"ha":1081,"x_min":0,"x_max":0,"o":"m 94 992 l 1021 992 l 1021 803 l 364 803 l 364 597 l 988 597 l 988 417 l 364 417 l 364 189 l 1026 189 l 1026 0 l 94 0 m 267 1254 l 565 1254 l 689 1057 l 467 1057 "},"Í":{"ha":458,"x_min":0,"x_max":0,"o":"m 94 992 l 364 992 l 364 0 l 94 0 m 204 1254 l 503 1254 l 303 1057 l 81 1057 "},"Î":{"ha":458,"x_min":0,"x_max":0,"o":"m 94 992 l 364 992 l 364 0 l 94 0 m 68 1254 l 390 1254 l 590 1057 l 329 1057 l 219 1169 l 113 1057 l -132 1057 "},"Ï":{"ha":458,"x_min":0,"x_max":0,"o":"m 94 992 l 364 992 l 364 0 l 94 0 m -92 1221 l 153 1221 l 153 1057 l -92 1057 m 306 1221 l 550 1221 l 550 1057 l 306 1057 "},"Ì":{"ha":458,"x_min":0,"x_max":0,"o":"m 94 992 l 364 992 l 364 0 l 94 0 m -44 1254 l 254 1254 l 378 1057 l 156 1057 "},"Ñ":{"ha":1286,"x_min":0,"x_max":0,"o":"m 931 992 l 1192 992 l 1192 0 l 899 0 l 358 692 l 356 692 l 356 0 l 94 0 l 94 992 l 407 992 l 928 300 l 931 300 m 301 1063 b 500 1254 333 1174 393 1254 b 803 1193 572 1254 719 1193 b 871 1247 840 1193 865 1208 l 985 1247 b 804 1057 971 1142 924 1057 b 489 1126 725 1057 542 1126 b 421 1063 453 1126 432 1096 "},"Ó":{"ha":1311,"x_min":0,"x_max":0,"o":"m 39 496 b 656 1019 39 703 122 1019 b 1272 496 1189 1019 1272 703 b 656 -28 1272 289 1189 -28 b 39 496 122 -28 39 289 m 325 496 b 656 161 325 342 411 161 b 986 496 900 161 986 342 b 656 831 986 650 900 831 b 325 496 411 831 325 650 m 631 1254 l 929 1254 l 729 1057 l 507 1057 "},"Ô":{"ha":1311,"x_min":0,"x_max":0,"o":"m 39 496 b 656 1019 39 703 122 1019 b 1272 496 1189 1019 1272 703 b 656 -28 1272 289 1189 -28 b 39 496 122 -28 39 289 m 325 496 b 656 161 325 342 411 161 b 986 496 900 161 986 342 b 656 831 986 650 900 831 b 325 496 411 831 325 650 m 494 1254 l 817 1254 l 1017 1057 l 756 1057 l 646 1169 l 539 1057 l 294 1057 "},"Ö":{"ha":1311,"x_min":0,"x_max":0,"o":"m 39 496 b 656 1019 39 703 122 1019 b 1272 496 1189 1019 1272 703 b 656 -28 1272 289 1189 -28 b 39 496 122 -28 39 289 m 325 496 b 656 161 325 342 411 161 b 986 496 900 161 986 342 b 656 831 986 650 900 831 b 325 496 411 831 325 650 m 335 1221 l 579 1221 l 579 1057 l 335 1057 m 732 1221 l 976 1221 l 976 1057 l 732 1057 "},"Ò":{"ha":1311,"x_min":0,"x_max":0,"o":"m 39 496 b 656 1019 39 703 122 1019 b 1272 496 1189 1019 1272 703 b 656 -28 1272 289 1189 -28 b 39 496 122 -28 39 289 m 325 496 b 656 161 325 342 411 161 b 986 496 900 161 986 342 b 656 831 986 650 900 831 b 325 496 411 831 325 650 m 382 1254 l 681 1254 l 804 1057 l 582 1057 "},"Õ":{"ha":1311,"x_min":0,"x_max":0,"o":"m 39 496 b 656 1019 39 703 122 1019 b 1272 496 1189 1019 1272 703 b 656 -28 1272 289 1189 -28 b 39 496 122 -28 39 289 m 325 496 b 656 161 325 342 411 161 b 986 496 900 161 986 342 b 656 831 986 650 900 831 b 325 496 411 831 325 650 m 314 1063 b 513 1254 346 1174 406 1254 b 815 1193 585 1254 732 1193 b 883 1247 853 1193 878 1208 l 997 1247 b 817 1057 983 1142 936 1057 b 501 1126 738 1057 554 1126 b 433 1063 465 1126 444 1096 "},"Š":{"ha":1132,"x_min":0,"x_max":0,"o":"m 765 704 b 517 847 749 833 625 847 b 333 731 406 847 333 797 b 447 638 333 678 378 649 l 785 583 b 1103 306 965 554 1103 486 b 588 -28 1103 121 978 -28 b 29 313 346 -28 32 3 l 332 313 b 588 153 335 176 471 153 b 800 276 714 153 800 190 b 632 390 800 353 739 374 l 386 428 b 47 708 214 454 47 506 b 539 1019 47 929 228 1019 b 1064 704 743 1019 1046 985 m 728 1057 l 406 1057 l 206 1254 l 467 1254 l 576 1142 l 683 1254 l 928 1254 "},"Ú":{"ha":1208,"x_min":0,"x_max":0,"o":"m 83 992 l 353 992 l 353 422 b 604 161 353 325 357 161 b 856 422 851 161 856 325 l 856 992 l 1125 992 l 1125 356 b 604 -28 1125 244 1111 -28 b 83 356 97 -28 83 244 m 579 1254 l 878 1254 l 678 1057 l 456 1057 "},"Û":{"ha":1208,"x_min":0,"x_max":0,"o":"m 83 992 l 353 992 l 353 422 b 604 161 353 325 357 161 b 856 422 851 161 856 325 l 856 992 l 1125 992 l 1125 356 b 604 -28 1125 244 1111 -28 b 83 356 97 -28 83 244 m 443 1254 l 765 1254 l 965 1057 l 704 1057 l 594 1169 l 488 1057 l 243 1057 "},"Ü":{"ha":1208,"x_min":0,"x_max":0,"o":"m 83 992 l 353 992 l 353 422 b 604 161 353 325 357 161 b 856 422 851 161 856 325 l 856 992 l 1125 992 l 1125 356 b 604 -28 1125 244 1111 -28 b 83 356 97 -28 83 244 m 283 1221 l 528 1221 l 528 1057 l 283 1057 m 681 1221 l 925 1221 l 925 1057 l 681 1057 "},"Ù":{"ha":1208,"x_min":0,"x_max":0,"o":"m 83 992 l 353 992 l 353 422 b 604 161 353 325 357 161 b 856 422 851 161 856 325 l 856 992 l 1125 992 l 1125 356 b 604 -28 1125 244 1111 -28 b 83 356 97 -28 83 244 m 331 1254 l 629 1254 l 753 1057 l 531 1057 "},"Ý":{"ha":1081,"x_min":0,"x_max":0,"o":"m 406 346 l -33 992 l 283 992 l 540 560 l 797 992 l 1114 992 l 675 346 l 675 0 l 406 0 m 515 1254 l 814 1254 l 614 1057 l 392 1057 "},"Ÿ":{"ha":1081,"x_min":0,"x_max":0,"o":"m 406 346 l -33 992 l 283 992 l 540 560 l 797 992 l 1114 992 l 675 346 l 675 0 l 406 0 m 219 1221 l 464 1221 l 464 1057 l 219 1057 m 617 1221 l 861 1221 l 861 1057 l 617 1057 "},"Ž":{"ha":1054,"x_min":0,"x_max":0,"o":"m 22 172 l 678 803 l 67 803 l 67 992 l 1032 992 l 1032 819 l 376 189 l 1032 189 l 1032 0 l 22 0 m 689 1057 l 367 1057 l 167 1254 l 428 1254 l 538 1142 l 644 1254 l 889 1254 "},"á":{"ha":1029,"x_min":0,"x_max":0,"o":"m 715 363 b 571 331 669 340 619 335 l 429 318 b 300 221 343 311 300 288 b 454 117 300 154 363 117 b 715 301 578 117 715 176 m 86 517 b 526 772 115 746 326 772 b 951 519 876 772 951 658 l 951 150 b 979 0 951 85 963 38 l 735 0 b 718 79 726 26 719 53 b 369 -28 635 -4 479 -28 b 39 214 175 -28 39 40 b 347 443 39 394 199 433 l 607 461 b 707 539 682 467 707 479 b 515 628 707 599 657 628 b 322 517 411 628 357 619 m 490 1035 l 789 1035 l 589 838 l 367 838 "},"â":{"ha":1029,"x_min":0,"x_max":0,"o":"m 715 363 b 571 331 669 340 619 335 l 429 318 b 300 221 343 311 300 288 b 454 117 300 154 363 117 b 715 301 578 117 715 176 m 86 517 b 526 772 115 746 326 772 b 951 519 876 772 951 658 l 951 150 b 979 0 951 85 963 38 l 735 0 b 718 79 726 26 719 53 b 369 -28 635 -4 479 -28 b 39 214 175 -28 39 40 b 347 443 39 394 199 433 l 607 461 b 707 539 682 467 707 479 b 515 628 707 599 657 628 b 322 517 411 628 357 619 m 354 1035 l 676 1035 l 876 838 l 615 838 l 506 950 l 399 838 l 154 838 "},"ä":{"ha":1029,"x_min":0,"x_max":0,"o":"m 715 363 b 571 331 669 340 619 335 l 429 318 b 300 221 343 311 300 288 b 454 117 300 154 363 117 b 715 301 578 117 715 176 m 86 517 b 526 772 115 746 326 772 b 951 519 876 772 951 658 l 951 150 b 979 0 951 85 963 38 l 735 0 b 718 79 726 26 719 53 b 369 -28 635 -4 479 -28 b 39 214 175 -28 39 40 b 347 443 39 394 199 433 l 607 461 b 707 539 682 467 707 479 b 515 628 707 599 657 628 b 322 517 411 628 357 619 m 194 1001 l 439 1001 l 439 838 l 194 838 m 592 1001 l 836 1001 l 836 838 l 592 838 "},"à":{"ha":1029,"x_min":0,"x_max":0,"o":"m 715 363 b 571 331 669 340 619 335 l 429 318 b 300 221 343 311 300 288 b 454 117 300 154 363 117 b 715 301 578 117 715 176 m 86 517 b 526 772 115 746 326 772 b 951 519 876 772 951 658 l 951 150 b 979 0 951 85 963 38 l 735 0 b 718 79 726 26 719 53 b 369 -28 635 -4 479 -28 b 39 214 175 -28 39 40 b 347 443 39 394 199 433 l 607 461 b 707 539 682 467 707 479 b 515 628 707 599 657 628 b 322 517 411 628 357 619 m 242 1035 l 540 1035 l 664 838 l 442 838 "},"å":{"ha":1029,"x_min":0,"x_max":0,"o":"m 715 363 b 571 331 669 340 619 335 l 429 318 b 300 221 343 311 300 288 b 454 117 300 154 363 117 b 715 301 578 117 715 176 m 86 517 b 526 772 115 746 326 772 b 951 519 876 772 951 658 l 951 150 b 979 0 951 85 963 38 l 735 0 b 718 79 726 26 719 53 b 369 -28 635 -4 479 -28 b 39 214 175 -28 39 40 b 347 443 39 394 199 433 l 607 461 b 707 539 682 467 707 479 b 515 628 707 599 657 628 b 322 517 411 628 357 619 m 350 985 b 526 1161 350 1082 429 1161 b 703 985 624 1161 703 1082 b 526 808 703 888 624 808 b 350 985 429 808 350 888 m 436 985 b 526 894 436 935 476 894 b 617 985 576 894 617 935 b 526 1075 617 1035 576 1075 b 436 985 476 1075 436 1035 "},"ã":{"ha":1029,"x_min":0,"x_max":0,"o":"m 715 363 b 571 331 669 340 619 335 l 429 318 b 300 221 343 311 300 288 b 454 117 300 154 363 117 b 715 301 578 117 715 176 m 86 517 b 526 772 115 746 326 772 b 951 519 876 772 951 658 l 951 150 b 979 0 951 85 963 38 l 735 0 b 718 79 726 26 719 53 b 369 -28 635 -4 479 -28 b 39 214 175 -28 39 40 b 347 443 39 394 199 433 l 607 461 b 707 539 682 467 707 479 b 515 628 707 599 657 628 b 322 517 411 628 357 619 m 174 843 b 372 1035 206 954 265 1035 b 675 974 444 1035 592 974 b 743 1028 713 974 738 989 l 857 1028 b 676 838 843 922 796 838 b 361 907 597 838 414 907 b 293 843 325 907 304 876 "},"ç":{"ha":1029,"x_min":0,"x_max":0,"o":"m 996 296 b 533 -28 953 38 769 -25 l 510 -65 b 571 -60 531 -61 551 -60 b 703 -171 638 -60 703 -94 b 506 -296 703 -274 585 -296 b 328 -276 419 -296 350 -283 l 351 -204 b 464 -218 390 -215 428 -218 b 531 -171 504 -218 531 -204 b 482 -128 531 -142 513 -128 b 417 -140 460 -128 438 -133 l 389 -115 l 447 -24 b 49 372 206 -6 49 117 b 540 772 49 653 246 772 b 996 469 729 772 950 715 l 743 469 b 540 600 714 568 639 600 b 301 372 389 600 301 518 b 540 144 301 226 389 144 b 743 296 649 144 731 203 "},"é":{"ha":1053,"x_min":0,"x_max":0,"o":"m 997 222 b 533 -28 926 46 757 -28 b 42 372 239 -28 42 92 b 533 772 42 653 239 772 b 1011 329 856 772 1011 610 l 1011 307 l 294 307 l 294 304 b 533 125 294 233 367 125 b 736 222 632 125 701 158 m 758 451 l 758 454 b 528 619 758 494 707 619 b 294 454 335 619 294 472 l 294 451 m 501 1035 l 800 1035 l 600 838 l 378 838 "},"ê":{"ha":1053,"x_min":0,"x_max":0,"o":"m 997 222 b 533 -28 926 46 757 -28 b 42 372 239 -28 42 92 b 533 772 42 653 239 772 b 1011 329 856 772 1011 610 l 1011 307 l 294 307 l 294 304 b 533 125 294 233 367 125 b 736 222 632 125 701 158 m 758 451 l 758 454 b 528 619 758 494 707 619 b 294 454 335 619 294 472 l 294 451 m 365 1035 l 688 1035 l 888 838 l 626 838 l 517 950 l 410 838 l 165 838 "},"ë":{"ha":1053,"x_min":0,"x_max":0,"o":"m 997 222 b 533 -28 926 46 757 -28 b 42 372 239 -28 42 92 b 533 772 42 653 239 772 b 1011 329 856 772 1011 610 l 1011 307 l 294 307 l 294 304 b 533 125 294 233 367 125 b 736 222 632 125 701 158 m 758 451 l 758 454 b 528 619 758 494 707 619 b 294 454 335 619 294 472 l 294 451 m 206 1001 l 450 1001 l 450 838 l 206 838 m 603 1001 l 847 1001 l 847 838 l 603 838 "},"è":{"ha":1053,"x_min":0,"x_max":0,"o":"m 997 222 b 533 -28 926 46 757 -28 b 42 372 239 -28 42 92 b 533 772 42 653 239 772 b 1011 329 856 772 1011 610 l 1011 307 l 294 307 l 294 304 b 533 125 294 233 367 125 b 736 222 632 125 701 158 m 758 451 l 758 454 b 528 619 758 494 707 619 b 294 454 335 619 294 472 l 294 451 m 253 1035 l 551 1035 l 675 838 l 453 838 "},"í":{"ha":411,"x_min":0,"x_max":0,"o":"m 83 744 l 328 744 l 328 0 l 83 0 m 181 1035 l 479 1035 l 279 838 l 57 838 "},"î":{"ha":411,"x_min":0,"x_max":0,"o":"m 83 744 l 328 744 l 328 0 l 83 0 m 44 1035 l 367 1035 l 567 838 l 306 838 l 196 950 l 89 838 l -156 838 "},"ï":{"ha":411,"x_min":0,"x_max":0,"o":"m 83 744 l 328 744 l 328 0 l 83 0 m -115 1001 l 129 1001 l 129 838 l -115 838 m 282 1001 l 526 1001 l 526 838 l 282 838 "},"ì":{"ha":411,"x_min":0,"x_max":0,"o":"m 83 744 l 328 744 l 328 0 l 83 0 m -68 1035 l 231 1035 l 354 838 l 132 838 "},"ñ":{"ha":1029,"x_min":0,"x_max":0,"o":"m 701 422 b 538 575 701 525 647 575 b 328 360 424 575 328 518 l 328 0 l 83 0 l 83 744 l 319 744 l 319 636 l 322 636 b 626 764 367 699 483 764 b 946 496 753 764 946 715 l 946 0 l 701 0 m 174 843 b 372 1035 206 954 265 1035 b 675 974 444 1035 592 974 b 743 1028 713 974 738 989 l 857 1028 b 676 838 843 922 796 838 b 361 907 597 838 414 907 b 293 843 325 907 304 876 "},"ó":{"ha":1081,"x_min":0,"x_max":0,"o":"m 49 372 b 540 772 49 653 246 772 b 1032 372 835 772 1032 653 b 540 -28 1032 92 835 -28 b 49 372 246 -28 49 92 m 301 372 b 540 144 301 226 389 144 b 779 372 692 144 779 226 b 540 600 779 518 692 600 b 301 372 389 600 301 518 m 515 1035 l 814 1035 l 614 838 l 392 838 "},"ô":{"ha":1081,"x_min":0,"x_max":0,"o":"m 49 372 b 540 772 49 653 246 772 b 1032 372 835 772 1032 653 b 540 -28 1032 92 835 -28 b 49 372 246 -28 49 92 m 301 372 b 540 144 301 226 389 144 b 779 372 692 144 779 226 b 540 600 779 518 692 600 b 301 372 389 600 301 518 m 379 1035 l 701 1035 l 901 838 l 640 838 l 531 950 l 424 838 l 179 838 "},"ö":{"ha":1081,"x_min":0,"x_max":0,"o":"m 49 372 b 540 772 49 653 246 772 b 1032 372 835 772 1032 653 b 540 -28 1032 92 835 -28 b 49 372 246 -28 49 92 m 301 372 b 540 144 301 226 389 144 b 779 372 692 144 779 226 b 540 600 779 518 692 600 b 301 372 389 600 301 518 m 219 1001 l 464 1001 l 464 838 l 219 838 m 617 1001 l 861 1001 l 861 838 l 617 838 "},"ò":{"ha":1081,"x_min":0,"x_max":0,"o":"m 49 372 b 540 772 49 653 246 772 b 1032 372 835 772 1032 653 b 540 -28 1032 92 835 -28 b 49 372 246 -28 49 92 m 301 372 b 540 144 301 226 389 144 b 779 372 692 144 779 226 b 540 600 779 518 692 600 b 301 372 389 600 301 518 m 267 1035 l 565 1035 l 689 838 l 467 838 "},"õ":{"ha":1081,"x_min":0,"x_max":0,"o":"m 49 372 b 540 772 49 653 246 772 b 1032 372 835 772 1032 653 b 540 -28 1032 92 835 -28 b 49 372 246 -28 49 92 m 301 372 b 540 144 301 226 389 144 b 779 372 692 144 779 226 b 540 600 779 518 692 600 b 301 372 389 600 301 518 m 199 843 b 397 1035 231 954 290 1035 b 700 974 469 1035 617 974 b 768 1028 738 974 763 989 l 882 1028 b 701 838 868 922 821 838 b 386 907 622 838 439 907 b 318 843 350 907 329 876 "},"š":{"ha":978,"x_min":0,"x_max":0,"o":"m 310 231 b 492 125 321 167 365 125 b 668 206 603 125 668 151 b 529 281 668 247 647 264 l 307 311 b 63 522 151 332 63 381 b 469 772 63 724 267 772 b 910 521 813 772 893 660 l 640 521 b 475 619 626 597 546 619 b 315 540 411 619 315 614 b 439 471 315 506 333 482 l 608 453 b 938 224 857 426 938 353 b 478 -28 938 3 690 -28 b 40 231 196 -28 53 54 m 650 838 l 328 838 l 128 1035 l 389 1035 l 499 922 l 606 1035 l 850 1035 "},"ú":{"ha":1029,"x_min":0,"x_max":0,"o":"m 710 100 l 707 100 b 403 -28 663 38 546 -28 b 83 240 276 -28 83 21 l 83 744 l 328 744 l 328 314 b 494 161 328 211 382 161 b 701 372 626 161 701 235 l 701 744 l 946 744 l 946 0 l 710 0 m 490 1035 l 789 1035 l 589 838 l 367 838 "},"û":{"ha":1029,"x_min":0,"x_max":0,"o":"m 710 100 l 707 100 b 403 -28 663 38 546 -28 b 83 240 276 -28 83 21 l 83 744 l 328 744 l 328 314 b 494 161 328 211 382 161 b 701 372 626 161 701 235 l 701 744 l 946 744 l 946 0 l 710 0 m 354 1035 l 676 1035 l 876 838 l 615 838 l 506 950 l 399 838 l 154 838 "},"ü":{"ha":1029,"x_min":0,"x_max":0,"o":"m 710 100 l 707 100 b 403 -28 663 38 546 -28 b 83 240 276 -28 83 21 l 83 744 l 328 744 l 328 314 b 494 161 328 211 382 161 b 701 372 626 161 701 235 l 701 744 l 946 744 l 946 0 l 710 0 m 194 1001 l 439 1001 l 439 838 l 194 838 m 592 1001 l 836 1001 l 836 838 l 592 838 "},"ù":{"ha":1029,"x_min":0,"x_max":0,"o":"m 710 100 l 707 100 b 403 -28 663 38 546 -28 b 83 240 276 -28 83 21 l 83 744 l 328 744 l 328 314 b 494 161 328 211 382 161 b 701 372 626 161 701 235 l 701 744 l 946 744 l 946 0 l 710 0 m 242 1035 l 540 1035 l 664 838 l 442 838 "},"ý":{"ha":900,"x_min":0,"x_max":0,"o":"m 922 744 l 515 -122 b 254 -276 457 -247 390 -276 b 82 -271 197 -276 139 -274 l 82 -99 b 188 -104 117 -101 153 -104 b 303 -28 247 -104 275 -79 l 328 26 l -22 744 l 243 744 l 456 253 l 661 744 m 425 1035 l 724 1035 l 524 838 l 301 838 "},"ÿ":{"ha":900,"x_min":0,"x_max":0,"o":"m 922 744 l 515 -122 b 254 -276 457 -247 390 -276 b 82 -271 197 -276 139 -274 l 82 -99 b 188 -104 117 -101 153 -104 b 303 -28 247 -104 275 -79 l 328 26 l -22 744 l 243 744 l 456 253 l 661 744 m 129 1001 l 374 1001 l 374 838 l 129 838 m 526 1001 l 771 1001 l 771 838 l 526 838 "},"ž":{"ha":900,"x_min":0,"x_max":0,"o":"m 36 153 l 507 564 l 63 564 l 63 744 l 847 744 l 847 592 l 376 181 l 864 181 l 864 0 l 36 0 m 611 838 l 289 838 l 89 1035 l 350 1035 l 460 922 l 567 1035 l 811 1035 "},"∆":{"ha":1171,"x_min":0,"x_max":0,"o":"m 40 107 l 454 1000 l 719 1000 l 1129 107 l 1129 0 l 40 0 m 874 158 l 669 624 b 576 846 643 685 597 785 l 569 846 b 488 643 554 803 514 706 l 278 158 "},"Ω":{"ha":1321,"x_min":0,"x_max":0,"o":"m 328 161 b 96 542 217 225 96 351 b 663 992 96 794 325 992 b 1225 540 1007 992 1225 786 b 989 161 1225 351 1113 235 l 989 156 l 1246 156 l 1246 0 l 747 0 l 747 121 b 1003 506 888 199 1003 308 b 665 839 1003 675 875 839 b 321 500 467 839 321 699 b 576 121 321 324 433 186 l 576 0 l 75 0 l 75 156 l 328 156 "},"μ":{"ha":1029,"x_min":0,"x_max":0,"o":"m 946 0 l 710 0 l 710 100 l 707 100 b 461 -28 649 0 525 -28 b 328 13 410 -28 356 -11 l 328 -276 l 83 -276 l 83 744 l 328 744 l 328 314 b 494 161 328 211 382 161 b 701 372 626 161 701 235 l 701 744 l 946 744 "},"π":{"ha":1065,"x_min":0,"x_max":0,"o":"m 896 572 l 896 244 b 918 0 896 128 907 44 l 700 0 b 672 222 681 24 672 114 l 672 572 l 428 572 b 322 0 422 392 376 99 l 103 0 b 207 572 156 136 206 406 b 28 557 131 572 71 569 l 4 682 b 292 731 43 714 131 731 l 1040 731 l 1021 572 "},"€":{"ha":1133,"x_min":0,"x_max":0,"o":"m 971 707 b 722 801 889 763 824 801 b 467 639 601 801 515 751 l 936 639 l 864 514 l 442 514 b 440 496 440 508 440 503 l 440 479 l 440 460 b 442 440 440 453 440 447 l 829 440 l 757 315 l 468 315 b 725 156 517 204 607 156 b 1036 253 836 156 942 199 l 1036 33 b 722 -28 936 -11 829 -28 b 193 315 471 -28 260 50 l 49 315 l 121 440 l 176 440 b 175 458 175 447 175 453 l 175 478 l 175 496 b 176 514 175 501 175 507 l 51 514 l 124 639 l 193 639 b 708 982 264 888 464 982 b 1086 885 842 982 971 956 "},"ℓ":{"ha":936,"x_min":0,"x_max":0,"o":"m 893 193 b 504 -19 796 40 649 -19 b 197 200 331 -19 233 63 b 194 213 196 204 196 208 b 111 158 164 193 142 176 l 49 264 b 190 356 93 294 144 325 l 190 669 b 500 1065 190 957 319 1065 b 767 811 683 1065 767 942 b 399 307 767 628 629 482 l 401 289 b 557 147 407 199 475 147 b 797 285 657 147 746 217 m 399 481 b 604 807 518 589 604 703 b 510 931 604 879 575 931 b 399 735 458 931 399 882 "},"℮":{"ha":1222,"x_min":0,"x_max":0,"o":"m 261 468 b 254 461 257 468 254 467 l 254 186 b 267 154 254 174 258 164 b 611 4 354 63 476 4 b 974 172 757 4 886 71 l 1056 172 b 610 -24 954 54 792 -24 b 47 482 299 -24 47 203 b 610 989 47 761 299 989 b 1174 482 922 989 1174 761 l 1174 468 m 967 781 b 953 814 967 793 963 806 b 611 958 865 901 744 958 b 268 810 478 958 357 900 b 254 775 258 801 254 789 l 254 504 b 261 494 254 501 257 494 l 961 494 b 967 504 965 494 967 501 "},"∂":{"ha":1006,"x_min":0,"x_max":0,"o":"m 100 999 b 436 1089 149 1031 261 1089 b 935 544 717 1089 935 874 b 428 -21 935 224 732 -21 b 53 318 167 -21 53 181 b 432 678 53 518 207 678 b 718 531 592 678 689 575 l 719 531 l 719 574 b 410 931 719 779 599 931 b 167 867 292 931 208 890 m 453 133 b 694 379 583 133 675 257 b 483 526 678 432 600 526 b 271 319 363 526 271 438 b 451 133 271 214 347 133 "},"∏":{"ha":1247,"x_min":0,"x_max":0,"o":"m 1028 804 l 1028 -135 l 818 -135 l 818 804 l 429 804 l 429 -135 l 218 -135 l 218 804 l 31 804 l 31 974 l 1215 974 l 1215 804 "},"∑":{"ha":993,"x_min":0,"x_max":0,"o":"m 32 -135 l 32 -22 l 456 413 l 56 844 l 56 974 l 931 974 l 931 804 l 360 804 l 360 799 l 704 432 l 331 42 l 331 36 l 965 36 l 965 -135 "},"∙":{"ha":514,"x_min":0,"x_max":0,"o":"m 114 382 b 257 525 114 460 181 525 b 400 382 333 525 400 460 b 257 239 400 304 333 239 b 114 382 181 239 114 304 "},"√":{"ha":1026,"x_min":0,"x_max":0,"o":"m 656 -215 l 483 -215 l 207 406 l 83 357 l 44 456 l 331 572 l 533 76 b 571 -28 546 42 560 7 l 574 -28 b 601 81 581 3 590 40 l 904 1158 l 1061 1158 "},"∞":{"ha":1224,"x_min":0,"x_max":0,"o":"m 1149 404 b 896 138 1149 238 1025 138 b 610 314 810 138 717 179 b 322 138 529 217 447 138 b 74 396 190 138 74 243 b 336 661 74 553 188 661 b 621 488 454 661 542 589 b 904 661 689 563 767 663 b 1149 406 1043 660 1149 560 m 338 244 b 551 393 425 244 497 331 b 329 556 489 476 432 556 b 186 396 246 556 186 490 b 335 244 186 315 247 244 m 892 556 b 676 401 799 556 726 458 b 899 244 772 286 828 244 b 1036 396 988 244 1036 326 b 893 556 1036 492 978 556 "},"∫":{"ha":613,"x_min":0,"x_max":0,"o":"m 582 1063 b 517 1075 565 1069 539 1075 b 428 1036 483 1075 447 1061 b 383 804 394 994 383 924 b 410 138 383 579 410 383 b 347 -136 410 6 382 -85 b 140 -243 301 -211 221 -243 b 7 -218 94 -243 35 -232 l 33 -87 b 111 -104 50 -96 81 -104 b 190 -72 142 -104 171 -94 b 243 143 224 -36 243 17 b 215 826 243 392 215 593 b 317 1143 215 986 246 1078 b 504 1206 364 1189 436 1206 b 604 1186 543 1206 586 1194 "},"≈":{"ha":946,"x_min":0,"x_max":0,"o":"m 882 582 b 647 432 815 485 735 432 b 453 494 574 432 528 456 b 307 543 408 518 364 543 b 132 433 232 543 181 493 l 57 513 b 313 661 110 596 211 661 b 490 606 390 661 442 633 b 642 550 556 568 585 550 b 806 660 706 550 756 588 m 882 292 b 646 142 817 197 738 142 b 453 206 574 142 524 168 b 307 253 406 231 361 253 b 132 143 229 253 181 203 l 57 222 b 313 372 110 306 211 372 b 489 317 389 372 442 343 b 640 261 539 290 578 261 b 806 369 707 261 751 296 "},"≠":{"ha":946,"x_min":0,"x_max":0,"o":"m 629 614 l 865 614 l 865 499 l 576 499 l 479 294 l 865 294 l 865 179 l 426 179 l 339 -6 l 243 40 l 310 179 l 81 179 l 81 294 l 363 294 l 460 499 l 81 499 l 81 614 l 513 614 l 597 794 l 693 749 "},"≤":{"ha":946,"x_min":0,"x_max":0,"o":"m 85 497 l 85 619 l 863 953 l 863 825 l 215 560 l 215 557 l 864 290 l 864 163 m 79 -11 l 79 107 l 865 107 l 865 -11 "},"≥":{"ha":946,"x_min":0,"x_max":0,"o":"m 864 618 l 864 496 l 86 163 l 86 290 l 733 557 l 733 560 l 85 825 l 85 953 m 82 -11 l 82 107 l 858 107 l 858 -11 "},"◊":{"ha":1028,"x_min":0,"x_max":0,"o":"m 593 -71 l 431 -71 l 79 486 l 431 1043 l 593 1043 l 947 486 m 540 846 b 511 900 531 863 517 886 l 508 900 b 478 846 500 885 489 863 l 263 489 l 485 125 b 513 71 496 104 508 83 l 517 71 b 546 125 524 85 535 108 l 761 482 "}," ":{"ha":514,"x_min":0,"x_max":0,"o":""},"­":{"ha":668,"x_min":0,"x_max":0,"o":"m 86 492 l 582 492 l 582 303 l 86 303 "},"ˉ":{"ha":361,"x_min":0,"x_max":0,"o":"m -154 1011 l 515 1011 l 515 867 l -154 867 "},"Ω":{"ha":1321,"x_min":0,"x_max":0,"o":"m 328 161 b 96 542 217 225 96 351 b 663 992 96 794 325 992 b 1225 540 1007 992 1225 786 b 989 161 1225 351 1113 235 l 989 156 l 1246 156 l 1246 0 l 747 0 l 747 121 b 1003 506 888 199 1003 308 b 665 839 1003 675 875 839 b 321 500 467 839 321 699 b 576 121 321 324 433 186 l 576 0 l 75 0 l 75 156 l 328 156 "},"∕":{"ha":232,"x_min":0,"x_max":0,"o":"m 301 992 l 433 992 l -69 -28 l -201 -28 "},"‐":{"ha":668,"x_min":0,"x_max":0,"o":"m 86 492 l 582 492 l 582 303 l 86 303 "}}}
